<?xml version="1.0" encoding="UTF-8" standalone="no"?>
<!DOCTYPE svg PUBLIC "-//W3C//DTD SVG 1.1//EN" "http://www.w3.org/Graphics/SVG/1.1/DTD/svg11.dtd">
<svg width="100%" height="100%" viewBox="0 0 417 417" version="1.1" xmlns="http://www.w3.org/2000/svg" xmlns:xlink="http://www.w3.org/1999/xlink" xml:space="preserve" xmlns:serif="http://www.serif.com/" style="fill-rule:evenodd;clip-rule:evenodd;stroke-linejoin:round;stroke-miterlimit:2;">
    <rect id="Artboard2" x="0" y="0" width="416.667" height="416.667" style="fill:none;"/>
    <g>
        <clipPath id="_clip1">
            <rect x="0" y="0" width="416.667" height="416.667"/>
        </clipPath>
        <g clip-path="url(#_clip1)">
            <g id="Artboard1">
                <g>
                    <g id="Group">
                        <g id="Social-Media">
                            <g id="Frank-Logo-Grey">
                                <g id="Group1" serif:id="Group">
                                    <path id="Combined-Shape" d="M309.626,-0C314.498,-0 319.744,0.385 324.989,1.154C350.844,5.791 368.077,23.536 368.077,48.996L368.077,50.545C366.955,70.983 353.835,87.575 337.724,87.575C336.229,87.575 335.107,87.575 333.6,87.19C320.491,84.872 311.122,72.917 311.122,59.028C311.122,56.325 311.496,53.622 312.244,50.929C315.994,33.568 331.357,20.064 344.466,20.064C345.598,20.064 346.346,20.449 347.468,20.449C339.979,15.823 333.974,12.735 328.355,11.955C326.111,11.571 323.868,11.571 321.613,11.571C298.761,11.571 277.019,31.635 256.784,118.44L253.408,132.575L361.763,132.575C365.256,132.575 368.077,135.406 368.077,138.889C368.077,142.372 365.256,145.203 361.763,145.203L250.342,145.192C246.1,162.244 241.891,181.635 237.318,202.019L361.763,202.019C365.256,202.019 368.077,204.85 368.077,208.333C368.077,211.816 365.256,214.647 361.763,214.647L234.466,214.637C230.203,233.323 225.566,252.585 220.267,271.474L362.276,271.464C365.759,271.464 368.59,274.295 368.59,277.778C368.59,281.261 365.759,284.092 362.276,284.092L216.603,284.092C195.374,354.744 163.686,416.667 105.406,416.667C77.308,416.667 48.077,398.921 48.077,369.209C48.077,364.968 48.825,360.726 49.947,356.1C52.949,338.344 66.816,328.707 79.551,328.707C81.047,328.707 82.179,328.707 83.675,329.092C95.662,331.4 105.032,343.365 105.032,357.639C105.032,359.957 105.032,362.65 104.284,365.353C100.908,382.714 85.171,396.218 72.062,396.218C70.929,396.218 70.182,395.833 69.06,395.833C78.429,400.459 86.667,402.778 94.167,402.778C134.53,402.778 147.34,337.735 159.177,264.092L160.406,256.442L161.624,248.75C163.056,239.754 164.498,230.684 165.994,221.645L167.169,214.637L99.188,214.647C95.705,214.647 92.874,211.816 92.874,208.333C92.874,204.85 95.705,202.019 99.188,202.019L169.38,202.03C172.949,182.222 176.976,162.917 181.966,145.192L54.391,145.203C50.908,145.203 48.077,142.372 48.077,138.889C48.077,135.406 50.908,132.575 54.391,132.575L185.887,132.575L190.47,118.44C211.068,47.607 255.876,1.688 306.784,0.043L309.626,0Z" style="fill:rgb(224,224,224);"/>
                                </g>
                            </g>
                        </g>
                    </g>
                </g>
            </g>
        </g>
    </g>
</svg>
